<?xml version="1.0" encoding="utf-8"?>
<!-- Generator: Adobe Illustrator 25.2.3, SVG Export Plug-In . SVG Version: 6.00 Build 0)  -->
<svg version="1.1" id="Layer_1" xmlns="http://www.w3.org/2000/svg" xmlns:xlink="http://www.w3.org/1999/xlink" x="0px" y="0px"
	 viewBox="0 0 560.2 101.6" style="enable-background:new 0 0 560.2 101.6;" xml:space="preserve">
<style type="text/css">
	.st0{fill:#FFFFFF;}
	.st1{fill:#ED2024;}
</style>
<path class="st0" d="M144.8,100.3c0-6.3,0-12.6,0-18.9c0-26,0-52,0-78c0-1.3,0-1.3,1.3-1.3c22,0,43.9,0,65.9,0c1.3,0,1.3,0,1.3,1.3
	c0,5.6,0,11.2,0,16.8c0,1.4,0,1.4-1.4,1.4c-12.8,0-25.6,0-38.3,0c-1.8,0-3.5,0-5.3,0c-0.9,0-1.3,0.3-1.3,1.2c0,5.7,0,11.3,0,17
	c0,1.3,0.1,1.3,1.4,1.3c8.7,0,17.3,0,26,0c4.2,0,8.5,0,12.7,0c1,0,1.3,0.3,1.2,1.3c0,5.7,0,11.3,0,17c0,1-0.4,1.2-1.3,1.2
	c-12.7,0-25.5,0-38.2,0c-0.3,0-0.5,0-0.8,0c-0.8-0.1-1.1,0.3-1.1,1.1c0,3.5,0,7.1,0,10.6c0,2.4,0,4.8,0,7.2c0,0.8,0.3,1.2,1.1,1.2
	c14.4,0,28.8,0,43.2,0c0.7,0,1.4,0,2.1,0c0.7,0,0.9,0.3,0.9,1c0,5.8,0,11.5,0,17.3c0,0.5,0,1,0.1,1.4
	C191.1,100.3,167.9,100.3,144.8,100.3z"/>
<path class="st0" d="M259.5,100.3c0-6.8,0-13.5,0-20.3c0-25.6,0-51.2,0-76.8c0-1,0.3-1.3,1.2-1.3c6.6,0,13.1,0,19.7,0
	c1,0,1.2,0.3,1.2,1.3c0,24.7,0,49.4,0,74.1c0,1.5,0,1.6,1.6,1.6c14.5,0,29,0,43.5,0c1.3,0,1.3,0,1.3,1.3c0,6.3,0,12.7,0,19
	c0,0.4,0,0.7,0.1,1.1C305.2,100.3,282.4,100.3,259.5,100.3z"/>
<path class="st1" d="M490.6,34.7c1-2.2,1.9-4,2.7-5.9c0.3-0.7,0.6-0.6,0.9-0.2c1.1,1.6,2.8,2.5,4.5,3.1c1.4,0.5,2.9,1.2,4.4,0.8
	c2.2-0.6,4.1-1.7,4.9-4c0.7-1.7-0.4-4.5-2-5.4c-1.8-1-3.6-1.1-5.5-1c-1,0-1.9,0-2.9,0c-0.7,0-0.9-0.3-0.9-0.9c0-1.1,0-2.2,0-3.3
	c0-0.5,0.2-1,0.5-1.4c1.5-1.7,3-3.3,4.4-5c0.6-0.7,1.2-1.5,1.7-2.4c0.4-0.6-0.2-0.7-0.7-0.7c-1.8,0-3.6,0-5.4,0c-1.4,0-2.8,0-4.1,0
	c-0.7,0-0.9-0.3-0.9-1c0-1.7,0-3.3,0-5c0-0.6,0.2-0.9,0.8-0.9c6.4,0,12.9,0,19.3,0c0.7,0,0.9,0.2,0.9,0.9c0,0.7-0.1,1.4,0,2
	c0.3,1.9-0.7,3.3-1.8,4.6c-1.5,1.7-3.1,3.4-4.6,5.1c-0.5,0.6-0.9,1.3-1.3,2c0,0.1,0.3,0.5,0.5,0.5c3.2,0.2,5.6,1.8,7.4,4.3
	c0.7,1,1.4,2.2,1.3,3.7c-0.1,1.2,0,2.4,0,3.7c0,2.3-0.6,4.2-2.1,6c-1.2,1.5-2.6,2.8-4.4,3.6c-1,0.4-2.1,0.5-3.2,0.7
	c-0.8,0.2-1.6,0.3-2.4,0.5c-0.3,0-0.6,0-0.9,0c-0.6-0.1-1.2-0.4-1.7-0.4c-1.5,0.1-2.8-0.3-4.1-1c-1.1-0.6-2.4-1-3.5-1.7
	C491.8,35.8,491.1,35.1,490.6,34.7z"/>
<path class="st0" d="M454.9,50.5c0,27.4-20.9,49.6-46.6,49.6s-46.6-22.2-46.6-49.6S382.5,1,408.2,1S454.9,23.2,454.9,50.5z
	 M408.2,21.7c-13.3,0-24.1,12.9-24.1,28.8s10.8,28.8,24.1,28.8c13.3,0,24.1-12.9,24.1-28.8S421.5,21.7,408.2,21.7z"/>
<g>
	<path class="st1" d="M546.9,3c2.6,0.8,4.7,2.4,6.3,4.7c1.3,1.8,2.2,3.8,2.6,5.9c0.5,2.1,0.7,4.2,0.7,6.1c0,4.9-1,9-2.9,12.4
		c-2.7,4.6-6.8,6.9-12.3,6.9h-15.8V2.2h15.8C543.5,2.2,545.4,2.5,546.9,3z M532.8,8.6v24h7.1c3.6,0,6.2-1.8,7.6-5.4
		c0.8-2,1.2-4.3,1.2-7c0-3.7-0.6-6.6-1.8-8.6c-1.2-2-3.5-3-7-3H532.8z"/>
</g>
<path class="st0" d="M44.5,100.3c-0.4-1.1-0.7-2.3-1.2-3.4c-0.7-1.7-1.5-3.3-2.3-5c-1.3-2.9-2.6-5.9-3.9-8.8c-0.6-1.3-1-2.8-1.6-4.1
	c-0.7-1.7-1.6-3.4-2.3-5.1c-0.2-0.5-0.3-1.2-0.5-1.7c-1.1-2.5-2.3-5-3.4-7.4c-0.8-1.7-1.4-3.5-2.2-5.3c-0.3-0.8-0.7-1.7-1.1-2.5
	c-0.5-1.1-0.9-2.3-1.4-3.4c-0.9-2.1-2-4.2-2.9-6.2c-0.6-1.3-1-2.6-1.5-3.9c-0.5-1.3-1.1-2.6-1.7-3.9c-0.6-1.5-1.2-3-1.8-4.5
	c-0.7-1.7-1.5-3.3-2.3-5c-0.2-0.5-0.3-1.1-0.5-1.6c-1.1-2.6-2.5-5.1-3.5-7.7c-1-2.8-2.4-5.4-3.5-8.2C6.4,10.8,5.8,9,5.1,7.3
	C4.6,6,3.9,4.8,3.4,3.6C3.1,3.1,3.1,2.6,3,2.1c35.5,0,71,0,106.6,0c-0.7,1.4-1.5,2.6-1.8,3.9c-0.4,1.5-1.1,2.8-1.7,4.2
	c-0.7,1.7-1.5,3.3-2.3,4.9c-0.3,0.7-0.4,1.4-0.7,2.1c-0.4,0.9-0.8,1.8-1.2,2.7c-0.8,1.7-1.5,3.3-2.3,5c-0.9,2.1-1.8,4.3-2.7,6.4
	c-0.8,1.9-2,3.7-2.6,5.7c-0.8,2.7-2.3,5-3.2,7.6c-0.7,2-1.6,3.9-2.4,5.9c-1,2.3-2.1,4.5-3.2,6.8c-0.5,1-0.8,2.1-1.2,3.2
	c-0.7,1.6-1.5,3.3-2.2,4.9c-0.3,0.8-0.5,1.6-0.8,2.3c-0.3,0.8-0.8,1.6-1.1,2.5c-0.8,1.7-1.6,3.5-2.3,5.2c-0.8,2-1.6,4-2.5,5.9
	c-0.9,1.9-1.9,3.8-2.7,5.8c-0.4,1-0.7,2-1.1,3c-0.7,1.7-1.5,3.4-2.2,5.1c-0.5,1.1-0.9,2.3-1.3,3.5c-0.2,0.5-0.3,1.1-0.5,1.7
	C60,100.3,52.2,100.3,44.5,100.3z M33.1,19.7l23.5,58.9l23-58.9H33.1z"/>
</svg>
